Coordinates
version=1
nRows=5
nColumns=63
inDegrees=yes

Units are S.I. units (second, meters, Newtons, ...)
If the header above contains a line with 'inDegrees', this indicates whether rotational values are in degrees (yes) or radians (no).

endheader
time	pelvis_tilt	pelvis_list	pelvis_rotation	pelvis_tx	pelvis_ty	pelvis_tz	hip_flexion_r	hip_adduction_r	hip_rotation_r	knee_angle_r	knee_angle_r_beta	ankle_angle_r	subtalar_angle_r	mtp_angle_r	hip_flexion_l	hip_adduction_l	hip_rotation_l	knee_angle_l	knee_angle_l_beta	ankle_angle_l	subtalar_angle_l	mtp_angle_l	L5_S1_Flex_Ext	L5_S1_Lat_Bending	L5_S1_axial_rotation	L4_L5_Flex_Ext	L4_L5_Lat_Bending	L4_L5_axial_rotation	L3_L4_Flex_Ext	L3_L4_Lat_Bending	L3_L4_axial_rotation	L2_L3_Flex_Ext	L2_L3_Lat_Bending	L2_L3_axial_rotation	L1_L2_Flex_Ext	L1_L2_Lat_Bending	L1_L2_axial_rotation	L1_T12_Flex_Ext	L1_T12_Lat_Bending	L1_T12_axial_rotation	Abs_r3	Abs_r2	Abs_r1	Abs_t1	Abs_t2	neck_flexion	neck_bending	neck_rotation	arm_flex_r	arm_add_r	arm_rot_r	elbow_flex_r	pro_sup_r	wrist_flex_r	wrist_dev_r	arm_flex_l	arm_add_l	arm_rot_l	elbow_flex_l	pro_sup_l	wrist_flex_l	wrist_dev_l
      0.00000000	     -2.40303166	     -6.23292522	     89.19686829	      0.16485158	      0.90320129	      0.57722060	      6.77132309	     -4.49564613	     -8.41977840	     10.41586516	      0.18179114	     25.93675952	     16.58993414	      0.00000000	      6.64369346	      1.59551156	    -16.87299274	      9.01982905	      0.15742571	     28.25828808	     16.14082640	      0.00000000	     -0.13329687	     -0.13064187	      0.51728802	     -0.24754561	     -0.17375369	      0.54961853	     -0.21899342	     -0.31764265	      0.54961853	     -0.15234499	     -0.31764265	      0.45262702	     -0.12377947	     -0.26640491	      0.42029652	     -0.07616583	     -0.20236426	      0.38796602	     -0.95212619	     -1.47784700	      2.87700081	      0.00000000	      0.00000000	     21.99734311	     -2.68553446	     -0.55871992	     16.99284248	    -13.14763244	     55.51404252	     53.58882541	     38.94427893	     -9.70681234	    -16.69859054	     27.16008131	     -7.01848889	     67.95226433	     52.44873478	     79.27627064	    -11.14347197	      5.77413665
      0.01694915	     -2.88340044	     -6.26947528	     88.85522454	      0.16563687	      0.90239329	      0.57648902	      6.69859837	     -4.95831521	     -7.42111960	     10.34926865	      0.18062881	     25.41649054	     15.78025964	      0.00000000	      6.54525633	      2.14179385	    -16.13194625	      8.90804154	      0.15547465	     28.10295291	     14.51920700	      0.00000000	     -0.13814326	     -0.20093204	      0.52987764	     -0.25654584	     -0.26723961	      0.56299499	     -0.22695556	     -0.48854616	      0.56299499	     -0.15788393	     -0.48854616	      0.46364293	     -0.12827983	     -0.40974061	      0.43052558	     -0.07893506	     -0.31124373	      0.39740823	     -0.98674346	     -2.27298341	      2.94702045	      0.00000000	      0.00000000	     22.60097611	     -2.19088563	     -0.74628113	     16.64625768	    -12.87975349	     55.22060309	     55.23488899	     19.26686921	     -4.45953587	    -14.28503177	     26.38919490	     -7.62986713	     66.23239082	     53.42315558	     84.48384462	    -10.55496024	      6.62237645
      0.03389831	     -3.31119385	     -6.29132390	     88.42329260	      0.16653465	      0.90170690	      0.57592818	      6.70671537	     -5.37472061	     -6.59066179	     10.38627375	      0.18127467	     25.11482497	     15.49595655	      0.00000000	      6.44784934	      2.58805338	    -16.03431592	      8.77438386	      0.15314189	     27.95868158	     13.73353833	      0.00000000	     -0.14071655	     -0.26285731	      0.62150550	     -0.26132470	     -0.34960022	      0.66034960	     -0.23118321	     -0.63911126	      0.66034960	     -0.16082494	     -0.63911126	      0.54381732	     -0.13066938	     -0.53601862	      0.50497322	     -0.08040543	     -0.40716597	      0.46612913	     -1.00512421	     -2.97349444	      3.45662717	      0.00000000	      0.00000000	     23.02050414	     -1.92702032	     -1.21745935	     16.16659872	    -12.68129254	     53.76048494	     55.82147184	     17.34399041	     -4.35205944	    -11.71753395	     26.43743537	     -7.93421081	     66.99694622	     53.66982233	     85.08905085	    -11.71745903	      6.04061150
      0.05084746	     -3.37000530	     -6.30048294	     88.48169869	      0.16670267	      0.90118512	      0.57527016	      6.61544638	     -5.46417647	     -6.43321679	     10.43698690	      0.18215979	     24.91989250	     15.58633763	      0.00000000	      6.43026905	      2.64477486	    -16.01839912	      8.79851179	      0.15356300	     27.98246291	     13.71707512	      0.00000000	     -0.13612620	     -0.27346215	      0.61709936	     -0.25279997	     -0.36370466	      0.65566807	     -0.22364174	     -0.66489588	      0.65566807	     -0.15557864	     -0.66489588	      0.53996194	     -0.12640679	     -0.55764402	      0.50139323	     -0.07778251	     -0.42359288	      0.46282452	     -0.97233585	     -3.09345858	      3.43212150	      0.00000000	      0.00000000	     23.12262348	     -1.92425959	     -1.22868280	     16.10822275	    -12.66849908	     53.79649030	     55.84070979	     17.31277733	     -4.35283163	    -11.63627436	     26.25846496	     -7.92863587	     67.10252483	     53.62447768	     85.09595494	    -11.71340360	      6.03953303
      0.06779661	     -3.92606090	     -6.31185708	     87.89951898	      0.16772997	      0.90071389	      0.57507122	      6.63064280	     -5.92007369	     -4.72151311	     10.27762340	      0.17937837	     24.73720201	     14.67009310	      0.00000000	      6.32397928	      3.26423924	    -15.66050256	      8.50410378	      0.14842461	     27.60852558	     12.60531481	      0.00000000	     -0.13684070	     -0.34709109	      0.73425150	     -0.25412686	     -0.46163115	      0.78014222	     -0.22481558	     -0.84391728	      0.78014222	     -0.15639524	     -0.84391728	      0.64247007	     -0.12707027	     -0.70778815	      0.59657935	     -0.07819078	     -0.53764410	      0.55068863	     -0.97743943	     -3.92636384	      4.08368658	      0.00000000	      0.00000000	     23.41789645	     -1.68005408	     -1.69706642	     15.79752036	    -12.38809324	     52.73842240	     56.19904596	     15.42412052	     -4.54186170	     -8.88509011	     26.46438997	     -8.05794745	     68.09260001	     53.45776598	     84.47371179	    -12.48132569	      5.49870584
